<svg xmlns="http://www.w3.org/2000/svg" viewBox="0 0 1079.95 1080.31"><defs><style>.cls-1{fill:#f7953e;}.cls-2{fill:#228440;}.cls-3{fill:#fff;}.cls-4{fill:#e6e7e8;}.cls-5{fill:#414042;}.cls-6{fill:#f5846f;}.cls-7{fill:#ef4571;}</style></defs><g id="Layer_2" data-name="Layer 2"><g id="Layer_1-2" data-name="Layer 1"><rect class="cls-1" x="0.72" width="1079.23" height="345.92"/><rect class="cls-2" y="734.38" width="1079.23" height="345.92"/><rect class="cls-3" y="345.92" width="1079.23" height="400"/><rect class="cls-4" x="205.72" y="265.72" width="669.23" height="557.69" rx="32.05"/><path class="cls-5" d="M225.51,337.52H855a0,0,0,0,1,0,0V792.19a12,12,0,0,1-12,12H237.51a12,12,0,0,1-12-12V337.52a0,0,0,0,1,0,0Z"/><rect class="cls-5" x="378.51" y="290.08" width="471.79" height="26.92" rx="12"/><circle class="cls-5" cx="240.23" cy="303.54" r="13.46"/><circle class="cls-5" cx="279.97" cy="303.54" r="13.46"/><circle class="cls-5" cx="321" cy="303.54" r="13.46"/><rect class="cls-6" x="266.51" y="388.8" width="156.41" height="19.23" rx="9.62"/><rect class="cls-6" x="266.51" y="687.12" width="93.2" height="19.23" rx="9.62"/><rect class="cls-6" x="625.77" y="439.42" width="114.63" height="19.23" rx="9.62"/><rect class="cls-6" x="373.77" y="540.65" width="158.29" height="19.23" rx="9.62"/><rect class="cls-7" x="439.59" y="388.8" width="85.58" height="19.23" rx="9.62"/><rect class="cls-7" x="548.92" y="540.65" width="122.55" height="19.23" rx="9.62"/><rect class="cls-7" x="364.25" y="591.27" width="197.68" height="19.23" rx="9.62"/><rect class="cls-7" x="525.17" y="490.04" width="89.24" height="19.23" rx="9.62"/><rect class="cls-7" x="266.51" y="591.27" width="85.58" height="19.23" rx="9.62"/><rect class="cls-7" x="469.26" y="641.89" width="150.13" height="19.23" rx="9.62"/><rect class="cls-7" x="266.51" y="641.89" width="186.41" height="19.23" rx="9.62"/><rect class="cls-7" x="371.45" y="439.42" width="237.97" height="19.23" rx="9.62"/><rect class="cls-7" x="266.51" y="490.04" width="237.97" height="19.23" rx="9.62"/></g></g></svg>