<?xml version="1.0" standalone="no"?>
<!DOCTYPE svg PUBLIC "-//W3C//DTD SVG 20010904//EN"
 "http://www.w3.org/TR/2001/REC-SVG-20010904/DTD/svg10.dtd">
<svg version="1.0" xmlns="http://www.w3.org/2000/svg"
 width="700.000000pt" height="700.000000pt" viewBox="0 0 700.000000 700.000000"
 preserveAspectRatio="xMidYMid meet">
<metadata>
Created by potrace 1.14, written by Peter Selinger 2001-2017
</metadata>
<g transform="translate(0.000000,700.000000) scale(0.100000,-0.100000)"
fill="#000000" stroke="none">
<path d="M10 5880 l0 -1120 659 0 659 0 4 183 c3 172 4 184 28 227 28 49 73
84 129 100 51 14 3982 14 4034 -1 49 -13 105 -63 128 -114 16 -34 19 -67 19
-217 l0 -178 665 0 665 0 0 1120 0 1120 -3495 0 -3495 0 0 -1120z"/>
<path d="M1495 5095 c-54 -53 -15 -149 60 -149 30 0 44 7 67 33 24 27 29 39
24 65 -14 71 -102 101 -151 51z"/>
<path d="M1755 5095 c-56 -55 -18 -149 59 -149 78 0 116 94 61 149 -33 34 -87
34 -120 0z"/>
<path d="M2016 5089 c-14 -17 -26 -39 -26 -50 0 -35 28 -76 61 -89 62 -26 132
37 115 103 -17 71 -104 91 -150 36z"/>
<path d="M2475 5095 c-36 -35 -34 -88 4 -126 l29 -29 1467 0 c1563 0 1511 -2
1529 45 14 38 6 91 -17 113 l-23 22 -1483 0 -1482 0 -24 -25z"/>
<path d="M1460 3331 l0 -1488 21 -27 20 -26 1998 0 1998 0 21 23 22 23 0 1492
0 1492 -2040 0 -2040 0 0 -1489z"/>
<path d="M0 1085 l0 -1085 3500 0 3500 0 0 1085 0 1085 -665 0 -665 0 0 -167
c0 -156 -2 -172 -24 -220 -17 -36 -38 -60 -67 -80 l-43 -28 -2023 -3 c-1851
-2 -2026 -1 -2056 14 -42 21 -75 52 -95 89 -13 24 -18 68 -22 210 l-5 180
-667 3 -668 2 0 -1085z"/>
</g>
</svg>
